<?xml version="1.0" standalone="no"?><!DOCTYPE svg PUBLIC "-//W3C//DTD SVG 1.1//EN" "http://www.w3.org/Graphics/SVG/1.1/DTD/svg11.dtd"><svg t="1735266193086" class="icon" viewBox="0 0 1024 1024" version="1.1" xmlns="http://www.w3.org/2000/svg" p-id="1594" xmlns:xlink="http://www.w3.org/1999/xlink" width="256" height="256"><path d="M541.888 153.344v-59.712a59.904 59.904 0 0 0-59.712-59.712H362.688a59.904 59.904 0 0 0-59.712 59.712v59.712H183.488v40.576h477.952v-40.576H541.888z m-48.192 0h-141.312V83.072l0.128-0.128h141.12l0.128 0.128v70.272z m287.168 231.936v-202.048a29.952 29.952 0 0 0-29.888-29.888h-59.712v41.6h50.944v190.336h-339.136s-10.56 1.28-16.64 7.168a30.72 30.72 0 0 0-7.488 16v461.376h-276.416V194.944h51.072v-41.6h-59.712a29.952 29.952 0 0 0-29.888 29.888v696.128c0 16.448 13.44 29.888 29.888 29.888h285.12v51.84s0.576 17.216 7.488 24.128 21.056 4.48 21.056 4.48l532.416 0.064s8.96 1.088 14.336-4.544c5.376-5.632 5.888-16.704 5.888-16.704v-559.232s-0.96-11.328-5.888-16.832c-4.928-5.504-15.744-7.168-15.744-7.168h-157.696z m-363.84 567.744l0.128-527.68h505.28v527.68h-505.408z" fill="#101317" p-id="1595"></path><path d="M522.176 543.104v40.576h130.688v248.576h40.704v-248.576h123.904v-40.576z" fill="#101317" p-id="1596"></path></svg>